<svg xmlns="http://www.w3.org/2000/svg" viewBox="0 0 800 800"><style>.st0{fill:#ffc5b1}.st1{fill:#ff775f}.st2{fill:#b6f0ff}.st3{fill:#06befb}.st4{fill:#b2976c}.st5{fill:#c9ac82}.st6{fill:#917655}.st7{fill:#ddc59e}.st8{fill:#56452d}.st9{fill:#e8eef4}</style><g id="Layer_1"><path class="st0" d="M457.95 704.21h304.24l-5.62-15-6.54-1.46 4.24-4.67-15.26-40.75v-46.06l-5.09-1.34 5.09-3.46v-8.19l-9.32-2.34 9.32-4.73v-22.88l-195.52 83.91-81.15-5.81 7.89 35.95-4.99 14.98 2.74 3.05-4.55 2.37z"/><path class="st1" d="M480.36 642.69l2.46 25.17-3.97 21.19 14.76.38.95-13.25 12.54.23 1.46 13.21 13.44.03-1.33-43.55-13.81-.57.37 17.98h-12.11l-1.13-19.5zM535.43 645.91l-8.07 43.71h13.12l1.39-12.11 10.21-.06 3.22 11.6 13.19.32-16.22-42.52zM596.75 639.66s-17.22-4.92-23.59 1.39c-3.81 3.77-9.39 15.55 2.78 23.4 11.73 7.57 20.63 6.62 16.46 13.06-3.3 5.1-16.84-1.51-16.84-1.51l-2.84 10.03s23.66 9.29 31.6-2.08c5.55-7.95 3.74-14.63-4.16-20.82-8.71-6.81-20.25-4.35-18.17-12.11 1.28-4.75 13.63.38 13.63.38l1.13-11.74zM599.96 634.17l14.01 53.75 12.49-1.33-2.84-17.79L638 685.84l13.63-1.9-23.09-28.76 3.03-29.71-13.06 3.22-.76 20.05-5.11-18.54zM635.16 624.14l19.87 59.61 27.44.38-4.35-14.88-14.13.75-4.42-13.69 12.12-.75-4.42-15.08-11.1 5.43-4.17-12.68 12.31-3.03-4.61-13.18zM667.33 613.55l19.31 70.02 23.59-1.33-4.1-15.14-11.74 2.08-12.42-59.36zM694.96 607.3l18.74 74.94 24.98-.76-2.65-15.14-11.74 1.14-10.72-65.79z"/><path class="st2" d="M652.62 241.2l-4.08-167.49-31.14 9.08-2.57 6.53-3.79-4.67-35.8 10.44-32.6-2.87-2.61 5.79-3.6-6.34-11.6-1.02-2.18 7.78-5.46-8.46-28.5-2.51 66.69 133.38 70.43 67.86 68.55 48.72 7.57-34.5 14.45-12.67-1.74-3.86 5.38.68 26.78-23.47z"/><path class="st3" d="M619.21 112l-38.92 10.38-41.32 2.61 8.76 20.91 26.63-5.3-18.65 26.92 9.11 22.25 24.16-40.9 32.21 18.65-1.06-21.83-18.44-10.17 19.22-3.18z"/><path class="st3" d="M618.65 178.68c-7.98-6.49-42.02-8.05-46.41 13.21-4.03 19.5 17.45 37.22 37.51 25.64 20.06-11.59 21.05-28.97 8.9-38.85zM632.21 209.05l-13.78 8.05 2.55 11.66-21.69 12.57 12.08 12.5 14.06-12.57 7.2 8.05 7.84-6.14-6.99-8.48zM643.02 247.19l-18.65 20.7 18.65 14.41 6.14-7.98-12.71-6.86 16.74-15.82zM668.02 257.36l-17.59 30.73 8.9 6.78 19.71-34.33zM666.54 301.23l20.76-39.84 3.39 26.28 11.66-23.1 14.2 4.24-21.41 26.7-9.11 18.43-5.93-20.98-4.87 14.41z"/><path class="st2" d="M604.87 189.98c-6.36-5.3-16.29.44-16.74 6.78-.42 5.93 7.84 12.29 13.77 9.32 5.94-2.96 6.91-12.82 2.97-16.1z"/><g><path class="st4" d="M499.96 362.51s22.81 4.77 35.66 1.66c15.17-3.67 25.3-18.66 25.3-18.66l27.37 25.92s-18.04 25.71-41.47 31.93c-23.91 6.35-47.9.62-47.9.62l1.04-41.47z"/><path class="st5" d="M499.96 362.51s22.81 4.77 35.66 1.66c15.17-3.67 25.3-18.66 25.3-18.66s1.72 19.78-20.42 30.47c-18.23 8.8-40.73 1.02-40.73 1.02l.19-14.49z"/><path class="st6" d="M604.25 272.73l10.78-28.61 25.71-20.94-10.57 31.93-5.19 34.83z"/><path class="st7" d="M597.63 262.64l-56.21 75.49 57.51 52.6 70.22-68.92z"/><path class="st6" d="M653.69 219.74l-16.53 40.48 40.67-22.26-2.61-19.84zM679.44 243.12l-10.74 40.02 38.3-28.29-8.17-17.16z"/><path class="st5" d="M594.72 378.48s9.96-10.98 10.91-12.06c1.53-1.72-.41-3.52-1.99-1.74-.81.91-11.11 12.29-11.11 12.29l2.19 1.51zM590.66 373.48s3.41-3.72 4.36-4.79c1.53-1.72-.41-3.52-1.99-1.74-.81.91-4.56 5.02-4.56 5.02l2.19 1.51zM598.31 343.93c-.9.49-.93 1.93-.12 2.41.93.56 2.03.1 2.2-.97.18-1.11-1.03-2.01-2.08-1.44zM596.87 348.42c-.9.49-.93 1.93-.12 2.41.93.56 2.03.1 2.2-.97.19-1.11-1.03-2.02-2.08-1.44zM601.74 347.56c-.9.49-.93 1.93-.12 2.41.93.56 2.03.1 2.2-.97.19-1.11-1.03-2.02-2.08-1.44z"/><path class="st5" d="M541.42 338.13s9.52.97 15.66 5.85 7.63 9.91 13.99 15.68c6.57 5.97 13.03 6.15 19.97 12.61 7.84 7.3 7.88 18.46 7.88 18.46l-57.5-52.6z"/><path class="st5" d="M555.17 345.43s9.96-10.98 10.91-12.06c1.53-1.72-.41-3.52-1.99-1.74-.81.91-11.11 12.29-11.11 12.29l2.19 1.51zM561 353.12s3.41-3.72 4.36-4.79c1.53-1.72-.41-3.52-1.99-1.74-.81.91-4.56 5.02-4.56 5.02l2.19 1.51zM566.22 355.38s3.41-3.72 4.36-4.79c1.53-1.72-.41-3.52-1.99-1.74-.81.91-4.56 5.02-4.56 5.02l2.19 1.51zM581.2 370.07s3.41-3.72 4.36-4.79c1.53-1.72-.41-3.52-1.99-1.74-.81.91-4.56 5.02-4.56 5.02l2.19 1.51z"/><g><path class="st5" d="M596.82 300.75c-.97-.33-2.05.62-1.85 1.54.22 1.06 1.3 1.56 2.21.96.93-.61.78-2.12-.36-2.5zM592.55 302.73c-.97-.33-2.05.62-1.85 1.54.22 1.06 1.3 1.56 2.21.96.93-.6.78-2.11-.36-2.5zM596.48 305.73c-.97-.33-2.05.62-1.85 1.54.22 1.06 1.3 1.56 2.21.96.93-.6.77-2.11-.36-2.5z"/></g></g><g><path class="st4" d="M525.12 545.98s-11.87-20.91-43.23-31.36c-31.46-10.49-65.55 1.7-65.55 1.7l-.95 43.34s24.12-9.71 40.23-6.89c17.36 3.05 28.02 18.39 28.02 18.39l41.48-25.18z"/><path class="st5" d="M524.98 545.98s-7.84-14.04-27.18-24.37c-12.21-6.52-25.23-4.86-28.48 3.46-2.9 7.42 1.08 13.04 10.1 19.64 10.44 7.63 17.27 18.33 17.27 18.33l28.29-17.06z"/><path class="st6" d="M579.94 584.97l51.76 14.34-28.11 11.85z"/><path class="st7" d="M505.32 655.28l99.8-44.59-64.74-86.18-76.23 44.85z"/><path class="st6" d="M493.54 630.22l7.31 44.53 25.8-29.02zM562.16 629.77l6.15-28.86 23.27 15.77 5.48 26.97z"/><path class="st5" d="M464.15 569.34s9.58 3.24 17.68-1.5c8.36-4.89 12.77-11.86 21.12-16.46 9.08-5 15.61-3.79 25.43-9.54 9.41-5.51 12.04-17.38 12.04-17.38l-76.27 44.88z"/><path class="st5" d="M479.01 568.37s7.21 12.95 7.92 14.2c1.14 2 3.47.74 2.28-1.32-.61-1.06-8.08-14.46-8.08-14.46l-2.12 1.58zM484.73 562.59s2.43 4.42 3.14 5.67c1.14 2 3.47.74 2.28-1.32-.61-1.06-3.29-5.93-3.29-5.93l-2.13 1.58zM513.78 607.99c-.04 1.03 1.18 1.78 2.01 1.33.95-.52 1.12-1.69.29-2.39-.85-.72-2.26-.14-2.3 1.06zM516.91 611.51c-.04 1.03 1.18 1.78 2.01 1.33.95-.52 1.12-1.69.29-2.39-.86-.72-2.26-.14-2.3 1.06zM518.65 606.88c-.04 1.03 1.18 1.78 2.01 1.33.95-.52 1.12-1.69.29-2.39-.85-.71-2.25-.13-2.3 1.06zM510 544.36s7.21 12.95 7.92 14.2c1.14 2 3.47.74 2.28-1.32-.61-1.06-8.08-14.46-8.08-14.46l-2.12 1.58zM533.77 534.16s2.43 4.42 3.14 5.67c1.14 2 3.47.74 2.28-1.32-.61-1.06-3.29-5.93-3.29-5.93l-2.13 1.58zM517.24 544.47s2.43 4.42 3.14 5.67c1.14 2 3.47.74 2.28-1.32-.61-1.06-3.29-5.93-3.29-5.93l-2.13 1.58zM471.47 569.61s2.43 4.42 3.14 5.67c1.14 2 3.47.74 2.28-1.32-.61-1.06-3.29-5.93-3.29-5.93l-2.13 1.58zM497.88 551.11s2.43 4.42 3.14 5.67c1.14 2 3.47.74 2.28-1.32-.61-1.06-3.29-5.93-3.29-5.93l-2.13 1.58z"/><g><path class="st5" d="M537.7 566.92c-.04 1.03 1.18 1.78 2.01 1.33.95-.52 1.12-1.69.29-2.39-.85-.71-2.25-.13-2.3 1.06zM540.83 570.45c-.04 1.03 1.18 1.78 2.01 1.33.95-.52 1.12-1.69.29-2.39-.86-.72-2.26-.14-2.3 1.06zM542.58 565.82c-.04 1.03 1.18 1.78 2.01 1.33.95-.52 1.12-1.69.29-2.39-.86-.72-2.26-.13-2.3 1.06z"/></g></g><g><path class="st6" d="M336.91 231.7s-.36-12.22-4.63-20.24c-4.52-8.5-10.82-13.05-18.41-14.86-15.39-3.66-22.82 14.32-11.41 21.42 2.26 1.41 5.49 1.72 7.86 6.57 1.74 3.57 1.83 9.47 1.83 9.47l24.76-2.36z"/><path class="st5" d="M297.19 233.75l9.04 103.77 53.82-3.87-8.61-105.5z"/><path class="st4" d="M328.45 231.62s1.25 14.77 1.39 16.2c.22 2.29 2.86 2.1 2.63-.27-.12-1.21-1.42-16.5-1.42-16.5l-2.6.57z"/><path class="st4" d="M297.19 233.74s5.9 5.28 13.74 4.43c7.84-.85 6.3-3.48 13.93-4.19s9.01 3.5 16.21 2.86c7.2-.64 10.36-8.7 10.36-8.7l-54.24 5.6z"/><path class="st4" d="M343.88 229.93s.87 10.29 1.01 11.72c.22 2.29 2.86 2.1 2.63-.27-.12-1.21-1.04-12.02-1.04-12.02l-2.6.57zM316.97 233.01s.37 5.06.51 6.49c.22 2.29 2.86 2.1 2.63-.27-.12-1.21-.54-6.79-.54-6.79l-2.6.57zM315.66 255.36s.37 5.06.51 6.49c.22 2.29 2.86 2.1 2.63-.27-.12-1.21-.54-6.79-.54-6.79l-2.6.57zM309.95 253.46s.37 5.06.51 6.49c.22 2.29 2.86 2.1 2.63-.27-.12-1.21-.54-6.79-.54-6.79l-2.6.57z"/><path class="st6" d="M312.65 242.61c-5.15.48-9.84 7.87-4.3 13.27 3.44 3.34 11.39 2.77 12.89-2.67 1.81-6.59-3.64-11.06-8.59-10.6zM315 268.24c-5.15.48-9.84 7.87-4.3 13.27 3.44 3.34 11.39 2.77 12.89-2.67 1.81-6.6-3.63-11.06-8.59-10.6zM334.28 254.3c-5.15.48-9.84 7.87-4.3 13.27 3.44 3.34 11.39 2.77 12.89-2.67 1.82-6.59-3.63-11.06-8.59-10.6zM317.77 294.2c-5.15.48-9.84 7.87-4.3 13.27 3.44 3.34 11.39 2.77 12.89-2.67 1.81-6.59-3.63-11.06-8.59-10.6zM337.05 280.26c-5.15.48-9.84 7.87-4.3 13.27 3.44 3.34 11.39 2.77 12.89-2.67 1.81-6.59-3.63-11.06-8.59-10.6zM224.62 244.01s-.36-12.22-4.63-20.24c-4.52-8.5-10.82-13.05-18.41-14.86-15.39-3.66-22.82 14.32-11.41 21.42 2.26 1.41 5.49 1.72 7.86 6.57 1.74 3.57 1.83 9.47 1.83 9.47l24.76-2.36z"/><path class="st5" d="M184.9 246.05l9.04 103.77 53.83-3.87-8.61-105.5z"/><path class="st4" d="M231.74 242.92s1.25 14.77 1.39 16.2c.22 2.29 2.86 2.1 2.63-.27-.12-1.21-1.42-16.5-1.42-16.5l-2.6.57z"/><path class="st4" d="M184.9 246.05s5.9 5.28 13.74 4.43c7.84-.85 6.3-3.48 13.93-4.19 7.63-.71 9.01 3.5 16.21 2.86 7.2-.64 10.36-8.7 10.36-8.7l-54.24 5.6z"/><path class="st4" d="M224.23 244.09s.87 10.29 1.01 11.72c.22 2.29 2.86 2.1 2.63-.27-.12-1.21-1.04-12.02-1.04-12.02l-2.6.57zM190.12 247.06s.37 5.06.51 6.49c.22 2.29 2.86 2.1 2.63-.27-.12-1.21-.54-6.79-.54-6.79l-2.6.57zM203.37 267.66s.37 5.06.51 6.49c.22 2.29 2.86 2.1 2.63-.27-.12-1.21-.54-6.79-.54-6.79l-2.6.57zM197.66 265.76s.37 5.06.51 6.49c.22 2.29 2.86 2.1 2.63-.27-.12-1.21-.54-6.79-.54-6.79l-2.6.57zM224.01 279.25s.37 5.06.51 6.49c.22 2.29 2.86 2.1 2.63-.27-.12-1.21-.54-6.79-.54-6.79l-2.6.57zM204.37 293.17s.37 5.06.51 6.49c.22 2.29 2.86 2.1 2.63-.27-.12-1.21-.54-6.79-.54-6.79l-2.6.57z"/><path class="st6" d="M200.36 254.91c-5.15.48-9.84 7.87-4.3 13.27 3.44 3.34 11.39 2.77 12.89-2.67 1.81-6.59-3.63-11.06-8.59-10.6zM202.71 280.54c-5.15.48-9.84 7.87-4.3 13.27 3.44 3.34 11.39 2.77 12.89-2.67 1.82-6.59-3.63-11.06-8.59-10.6zM221.99 266.6c-5.15.48-9.84 7.87-4.3 13.27 3.44 3.34 11.39 2.77 12.89-2.67 1.82-6.59-3.63-11.06-8.59-10.6zM205.48 306.5c-5.15.48-9.84 7.87-4.3 13.27 3.44 3.34 11.39 2.77 12.89-2.67 1.82-6.59-3.63-11.06-8.59-10.6zM224.76 292.56c-5.15.48-9.84 7.87-4.3 13.27 3.44 3.34 11.39 2.77 12.89-2.67 1.82-6.59-3.63-11.05-8.59-10.6z"/><path class="st5" d="M479.25 324.72s25.57 3.22 32.31 34.24c8.29 38.17-13.4 59.28-13.4 59.28l-18.91-93.52z"/><path class="st6" d="M158.57 340.02l9.19 179.89 77.37 7.44 33.41 47.06 67.92 14.46 85.21-16.26 14.77-64.65 67.2-26.98-38.56-177.08-57.51-7.74-27.34-33.5-83.95 5.35-60.57 19.41-13.41 29.08z"/><path class="st7" d="M390.23 262.66l-83.95 5.35-15.45 39.81-66.7 23.92 12.25 184.88 82.83 8.66 27.25 63.59 85.21-16.26 14.77-64.65 67.2-26.98-38.56-177.08-57.51-7.74z"/><path class="st5" d="M210.57 454.19c16.01-18.72 14.65-43.92 5.89-67.6-6.32-17.1-22.32-28.69-40.97-28.1-15.23.48-33.28 14.26-39.73 33.3-6.9 20.37 1.56 51.83 17.27 65.93 16.83 15.09 44.96 11.19 57.54-3.53z"/><path class="st6" d="M153.36 394.58c-18.05.26-20.61 29.77-7.19 51.26 12.05 19.31 34.72 19.92 41.22 5.87 8.7-18.79-7.89-57.51-34.03-57.13z"/><path class="st4" d="M319.28 385.76s1.95 17.35 5.35 42.69c1.85 13.82 13.22 21.51 27 20.07 14.68-1.53 22.03-11.51 20.89-22.81-2.86-28.22-4.8-44.8-4.8-44.8l-17.35 1.57s1.77 11.91 4.74 39.84c1.09 10.3-11.68 11.8-13.15 1.9-3.83-25.84-5.13-40.6-5.13-40.6l-17.55 2.14zM419.08 377.92s-9.28-4.42-20.32-2.47c-18.14 3.21-25.65 21.83-12.87 32.82 12.32 10.6 27.93 9.6 24.14 18.07-2.71 6.05-24.02-2.31-24.02-2.31l-4.79 13.74s20.96 8.75 34.46 3.53c14.99-5.79 16.59-24.08 4.71-32.84-11.87-8.76-24.04-6.94-21.22-14.85 2.63-7.4 15.53-1.04 15.53-1.04l4.38-14.65zM468.58 369.94l-41.81 4.77 3.06 17.18 13.55-1.34 8.4 44.68 18.71-2.3-10.69-44.48 12.22-2.48zM322.48 450.32l-17.27-20.38s11.92-7.53 10.44-20.88c-2.24-20.13-18.64-21.99-33.55-20.88-7.95.6-22.74 3.48-22.74 3.48l6.96 64.62 20.26-2.49-1.86-15.28 15.91 13.3 21.85-1.49zM281.9 418.2l-1.86-13.23s12.86-2.24 13.79 4.85c.86 6.53-11.93 8.38-11.93 8.38z"/><path class="st4" d="M337.32 442.45s1.25 14.77 1.39 16.2c.22 2.29 2.86 2.1 2.63-.27-.12-1.21-1.42-16.5-1.42-16.5l-2.6.57zM411.17 437.47s1.25 14.77 1.39 16.2c.22 2.29 2.86 2.1 2.63-.27-.12-1.21-1.42-16.5-1.42-16.5l-2.6.57zM277.88 446.48s1.25 14.77 1.39 16.2c.22 2.29 2.86 2.1 2.63-.27-.12-1.21-1.42-16.5-1.42-16.5l-2.6.57zM453.32 423.48s1.25 14.77 1.39 16.2c.22 2.29 2.86 2.1 2.63-.27-.12-1.21-1.42-16.5-1.42-16.5l-2.6.57zM402.15 431.75s1.25 14.77 1.39 16.2c.22 2.29 2.86 2.1 2.63-.27-.12-1.21-1.42-16.5-1.42-16.5l-2.6.57zM343.61 436.2s1.25 14.77 1.39 16.2c.22 2.29 2.86 2.1 2.63-.27-.12-1.21-1.42-16.5-1.42-16.5l-2.6.57zM302.75 438.21s1.25 14.77 1.39 16.2c.22 2.29 2.86 2.1 2.63-.27-.12-1.21-1.42-16.5-1.42-16.5l-2.6.57z"/><g><path class="st5" d="M282.42 484.46s.91 18.72.99 20.15c.14 2.3 2.78 2.21 2.64-.17-.07-1.22-1.01-20.45-1.01-20.45l-2.62.47zM292.25 486.45s.91 18.72.99 20.15c.14 2.3 2.78 2.21 2.64-.17-.07-1.22-1.01-20.45-1.01-20.45l-2.62.47zM277.36 489.76s.91 18.72.99 20.15c.14 2.3 2.78 2.21 2.64-.17-.07-1.22-1.01-20.45-1.01-20.45l-2.62.47z"/><path class="st4" d="M284.07 472.71c-10.12.68-16.57 13.9-9.82 22.87 5.16 6.85 18.48 5.9 23.25-1.39 5.08-7.77.38-22.4-13.43-21.48z"/><path class="st6" d="M298.07 488.56l-23.13-8.51-1.93 4.46 23.46 8.54z"/><path class="st5" d="M272.64 498.92c-.9.49-.93 1.93-.12 2.41.93.56 2.03.1 2.2-.97.19-1.11-1.03-2.02-2.08-1.44z"/></g><g><path class="st5" d="M472.5 457.72s2.07 18.63 2.24 20.05c.28 2.29 2.91 2.03 2.62-.33-.15-1.21-2.28-20.35-2.28-20.35l-2.58.63zM467.22 467.91s2.07 18.63 2.24 20.05c.28 2.29 2.91 2.03 2.62-.33-.15-1.21-2.28-20.35-2.28-20.35l-2.58.63zM478.84 459.01s2.07 18.63 2.24 20.05c.28 2.29 2.91 2.03 2.62-.33-.15-1.21-2.28-20.35-2.28-20.35l-2.58.63zM461.46 460.37s2.07 18.63 2.24 20.05c.28 2.29 2.91 2.03 2.62-.33-.15-1.21-2.28-20.35-2.28-20.35l-2.58.63z"/><path class="st4" d="M469.15 448.13c-10.06 1.3-15.68 14.9-8.38 23.43 5.58 6.52 18.81 4.74 23.12-2.83 4.58-8.06-1.02-22.37-14.74-20.6z"/><path class="st6" d="M481.13 453.63l-21.49 12.07 2.14 4.37 21.73-12.31z"/></g><g><path class="st5" d="M336.87 331.64s1.6 18.67 1.74 20.1c.22 2.29 2.86 2.1 2.63-.27-.12-1.21-1.77-20.4-1.77-20.4l-2.6.57zM356.91 324.48s1.6 18.67 1.74 20.1c.22 2.29 2.86 2.1 2.63-.27-.12-1.21-1.77-20.4-1.77-20.4l-2.6.57zM385.55 333.74s1.6 18.67 1.74 20.1c.22 2.29 2.86 2.1 2.63-.27-.12-1.21-1.77-20.4-1.77-20.4l-2.6.57zM379.25 325.15s1.6 18.67 1.74 20.1c.22 2.29 2.86 2.1 2.63-.27-.12-1.21-1.77-20.4-1.77-20.4l-2.6.57zM342.53 334.32s1.6 18.67 1.74 20.1c.22 2.29 2.86 2.1 2.63-.27-.12-1.21-1.77-20.4-1.77-20.4l-2.6.57z"/><path class="st8" d="M314.73 304.87l36.91-3.73-31.38-9.96zM365.18 300.03l34.15-2.76-9.54-11.75z"/><path class="st6" d="M332.01 343.85l64.28-7.05s-11.22-26.34-34.42-23.64c-24.89 2.91-29.86 30.69-29.86 30.69z"/><path class="st4" d="M332.01 343.85l64.28-7.05s-10.5-18.78-33.69-16.07c-24.89 2.9-30.59 23.12-30.59 23.12z"/><path class="st6" d="M365.25 314.03l-5.25.53 3.73 24.8 3.39-.28zM348.8 319.85l-3.37 2.64 6.07 18.25 3.16-.31zM375.81 317.05l3.52 2.02-.93 18.92-3.16.37z"/></g><path class="st5" d="M233.21 329.21s.87 10.42 1.01 11.85c.22 2.29 2.86 2.1 2.63-.27-.12-1.21-1.04-12.16-1.04-12.16l-2.6.58zM239.31 327.23s1.24 15.03 1.38 16.46c.22 2.29 2.86 2.1 2.63-.27-.12-1.21-1.41-16.76-1.41-16.76l-2.6.57zM256.8 320.74s1.25 14.77 1.39 16.2c.22 2.29 2.86 2.1 2.63-.27-.12-1.21-1.42-16.5-1.42-16.5l-2.6.57zM278.15 312.77s1.6 18.67 1.74 20.1c.22 2.29 2.86 2.1 2.63-.27-.12-1.21-1.77-20.4-1.77-20.4l-2.6.57zM272.79 314.95s1.11 13.44 1.25 14.86c.22 2.29 2.86 2.1 2.63-.27-.12-1.21-1.28-15.17-1.28-15.17l-2.6.58z"/><path class="st5" d="M224.29 331.5s5.6 5.85 15.02 2.8c6.86-2.22 9.87-8.04 17.44-10.63 9.48-3.25 15.64-.78 22.97-3.69 8.02-3.18 10.82-12.09 10.82-12.09l-66.25 23.61zM417.66 296.1s4.91 7.13 12.6 8.54c10.4 1.91 10.07-3.09 18.85-1.72 7.92 1.24 9.1 7.1 15.8 7.92 7.35.91 9.93-7.06 9.93-7.06l-57.18-7.68z"/><path class="st5" d="M427.28 299.35s.92 10.74 1.05 12.17c.22 2.29 2.86 2.1 2.63-.27-.12-1.21-1.08-12.47-1.08-12.47l-2.6.57zM432.15 299.39s1.11 13.01 1.25 14.44c.22 2.29 2.86 2.1 2.63-.27-.12-1.21-1.27-14.74-1.27-14.74l-2.61.57zM447.85 301.4s.44 5.33.58 6.76c.22 2.29 2.86 2.1 2.63-.27-.12-1.21-.61-7.06-.61-7.06l-2.6.57zM464.93 304.4s.9 10.77 1.04 12.2c.22 2.29 2.86 2.1 2.63-.27-.12-1.21-1.07-12.5-1.07-12.5l-2.6.57zM460.07 304.26s1.19 13.52 1.32 14.95c.22 2.29 2.86 2.1 2.63-.27-.12-1.21-1.35-15.25-1.35-15.25l-2.6.57zM449.54 311.83c-.9.49-.93 1.93-.12 2.41.93.56 2.03.1 2.2-.97.19-1.11-1.03-2.01-2.08-1.44z"/><g><path class="st5" d="M435.78 341.21c-.9.49-.93 1.93-.12 2.41.93.56 2.03.1 2.2-.97.19-1.11-1.03-2.02-2.08-1.44zM440.81 343.5c-.9.49-.93 1.93-.12 2.41.93.56 2.03.1 2.2-.97.19-1.11-1.03-2.02-2.08-1.44zM436.23 346.46c-.9.49-.93 1.93-.12 2.41.93.56 2.03.1 2.2-.97.19-1.11-1.03-2.02-2.08-1.44z"/></g><path class="st5" d="M359.79 348.18c-.9.49-.93 1.93-.12 2.41.93.56 2.03.1 2.2-.97.19-1.1-1.03-2.01-2.08-1.44zM263.09 324.32c-.9.49-.93 1.93-.12 2.41.93.56 2.03.1 2.2-.97.18-1.1-1.03-2.01-2.08-1.44z"/><g><path class="st5" d="M251.25 374.05c-.9.49-.93 1.93-.12 2.41.93.56 2.03.1 2.2-.97.19-1.1-1.03-2.01-2.08-1.44zM249.82 378.54c-.9.49-.93 1.93-.12 2.41.93.56 2.03.1 2.2-.97.19-1.11-1.03-2.01-2.08-1.44zM254.69 377.68c-.9.49-.93 1.93-.12 2.41.93.56 2.03.1 2.2-.97.18-1.11-1.03-2.01-2.08-1.44z"/></g><path class="st6" d="M175.95 518.42s1.25 14.77 1.39 16.2c.22 2.29 2.86 2.1 2.63-.27-.12-1.21-1.42-16.5-1.42-16.5l-2.6.57zM181.59 511.25s1.25 14.77 1.39 16.2c.22 2.29 2.86 2.1 2.63-.27-.12-1.21-1.42-16.5-1.42-16.5l-2.6.57zM210.97 522.27s1.25 14.77 1.39 16.2c.22 2.29 2.86 2.1 2.63-.27-.12-1.21-1.42-16.5-1.42-16.5l-2.6.57zM221.14 517.04s1.25 14.77 1.39 16.2c.22 2.29 2.86 2.1 2.63-.27-.12-1.21-1.42-16.5-1.42-16.5l-2.6.57zM199.67 510.54s1.25 14.77 1.39 16.2c.22 2.29 2.86 2.1 2.63-.27-.12-1.21-1.42-16.5-1.42-16.5l-2.6.57zM316.22 576.09s1.25 14.77 1.39 16.2c.22 2.29 2.86 2.1 2.63-.27-.12-1.21-1.42-16.5-1.42-16.5l-2.6.57zM321.16 570.72s1.25 14.77 1.39 16.2c.22 2.29 2.86 2.1 2.63-.27-.12-1.21-1.42-16.5-1.42-16.5l-2.6.57z"/><g><path class="st5" d="M350.5 493.63c-1.03-.04-1.78 1.18-1.34 2.01.51.95 1.69 1.12 2.39.29.73-.85.15-2.25-1.05-2.3zM346.97 496.76c-1.03-.04-1.78 1.18-1.34 2.01.51.95 1.69 1.12 2.39.29.73-.86.15-2.26-1.05-2.3zM351.6 498.51c-1.03-.04-1.78 1.18-1.34 2.01.51.95 1.69 1.12 2.39.29.72-.85.14-2.26-1.05-2.3z"/></g><g><path class="st5" d="M408.44 520.23c-.9.49-.93 1.93-.12 2.41.93.56 2.03.1 2.2-.97.19-1.1-1.03-2.01-2.08-1.44zM407.01 524.72c-.9.49-.93 1.93-.12 2.41.93.56 2.03.1 2.2-.97.18-1.11-1.03-2.01-2.08-1.44zM411.87 523.86c-.9.49-.93 1.93-.12 2.41.93.56 2.03.1 2.2-.97.19-1.11-1.03-2.01-2.08-1.44z"/></g><path class="st5" d="M336.96 265.96s1.04 12.13 1.18 13.56c.22 2.29 2.86 2.1 2.63-.27-.12-1.21-1.14-13.45-1.14-13.45l-2.67.16zM374.57 263.68s1.04 12.13 1.18 13.56c.22 2.29 2.86 2.1 2.63-.27-.12-1.21-1.14-13.45-1.14-13.45l-2.67.16zM330.37 266.44s.39 4.57.53 5.99c.22 2.29 2.86 2.1 2.63-.27-.12-1.21-.49-5.89-.49-5.89l-2.67.17zM310.34 267.77s.39 4.57.53 5.99c.22 2.29 2.86 2.1 2.63-.27-.12-1.21-.49-5.89-.49-5.89l-2.67.17zM379.91 263.25s.39 4.57.53 5.99c.22 2.29 2.86 2.1 2.63-.27-.12-1.21-.49-5.89-.49-5.89l-2.67.17z"/></g><g><path class="st4" d="M145.81 413.72c-8.29 3.73-20.04 13.82-31.52 32.76-12.22 20.16-14.31 45.41-14.31 45.41l39.6 9.95s3.73-20.18 12.03-33.04c8.55-13.25 14.65-13.41 19.35-19.63 5.43-7.18 7.91-16.37.76-26.95-7.45-11.05-18.88-11.66-25.91-8.5z"/><path class="st5" d="M114.3 446.48c-12.22 20.16-14.31 45.41-14.31 45.41l22.29 3.66s4.69-22.93 11.84-36.46c8.4-15.91 22.53-26.47 11.33-31.31-9.59-4.14-19.68-.23-31.15 18.7z"/><path class="st6" d="M143.53 581.47l3.94 16.72-.69 24.74-14.51-24.6-18.66-23.09zM70.96 569.23l-19.49 10.58-14.72 28.61 30.07-18.87 35.24-15.13z"/><path class="st6" d="M102.06 575.24l-10.02 7.88-8.91 24.12-9.06-27.16 13.07-19.35z"/><path class="st7" d="M78.63 482.77l-16.55 87.36 86.23 13.01 12.22-85.73z"/><path class="st5" d="M85.98 485.2s-2.76 14.56-3.01 15.98c-.4 2.27 2.19 2.79 2.6.45.21-1.2 3.07-16.28 3.07-16.28l-2.66-.15z"/><path class="st5" d="M78.63 482.77s5.39 8.47 14.64 10.02c9.55 1.6 13-1.61 22.36.21 10.17 1.98 11.93 5.06 23.15 6.94 10.75 1.8 21.75-2.54 21.75-2.54l-81.9-14.63z"/><path class="st5" d="M144.5 495.63s-2.76 14.56-3.01 15.98c-.4 2.27 2.19 2.79 2.6.45.21-1.2 3.07-16.28 3.07-16.28l-2.66-.15zM90.78 491.39s-2.76 14.56-3.01 15.98c-.4 2.27 2.19 2.79 2.6.45.21-1.2 3.07-16.28 3.07-16.28l-2.66-.15zM102.18 490.59s-.97 4.95-1.22 6.36c-.4 2.27 2.19 2.79 2.6.45.21-1.2 1.27-6.66 1.27-6.66l-2.65-.15zM124.6 494.93s-.97 4.95-1.22 6.36c-.4 2.27 2.19 2.79 2.6.45.21-1.2 1.27-6.66 1.27-6.66l-2.65-.15zM129.58 493.87s-.97 4.95-1.22 6.36c-.4 2.27 2.19 2.79 2.6.45.21-1.2 1.27-6.66 1.27-6.66l-2.65-.15zM151.09 497.79s-.97 4.95-1.22 6.36c-.4 2.27 2.19 2.79 2.6.45.21-1.2 1.27-6.66 1.27-6.66l-2.65-.15zM100.15 512.03c-.9.49-.93 1.93-.12 2.41.93.56 2.03.1 2.2-.97.19-1.11-1.03-2.02-2.08-1.44zM98.72 516.51c-.9.49-.93 1.93-.12 2.41.93.56 2.03.1 2.2-.97.18-1.1-1.03-2.01-2.08-1.44zM103.59 515.65c-.9.49-.93 1.93-.12 2.41.93.56 2.03.1 2.2-.97.18-1.1-1.03-2.01-2.08-1.44z"/><g><path class="st5" d="M124.07 547.98c-.19 1.01.91 1.93 1.8 1.61 1.02-.37 1.35-1.51.63-2.32-.74-.84-2.21-.47-2.43.71zM126.65 551.92c-.19 1.01.91 1.93 1.8 1.61 1.02-.37 1.35-1.51.63-2.32-.74-.84-2.21-.47-2.43.71zM129.05 547.59c-.19 1.01.91 1.93 1.8 1.61 1.02-.37 1.35-1.51.63-2.32-.74-.84-2.21-.46-2.43.71z"/></g></g><g><path class="st4" d="M225.52 622.19s3.23-30.24 14.93-50.1c12.42-21.07 27.2-30.42 38.38-34.33 27.91-9.77 43.88 24.72 24 37.4-8.09 5.16-15.07 10.88-21.21 22.05-6.2 11.27-8.93 31.4-8.93 31.4l-47.17-6.42z"/><path class="st5" d="M226.35 617.18s2.86-26.01 13.54-44.19c10.96-18.66 20.24-19.03 26.09-15.52 10.6 6.36 3.66 23.68-1.3 33.98-4.93 10.25-7.9 27.77-7.9 27.77l-30.43-2.04z"/><path class="st6" d="M298.73 675.39l21.46 28.82h-20.84z"/><path class="st7" d="M206.62 607.18l91.45 7.98 2.01 89.05H191.93z"/><path class="st6" d="M247.41 704.21l-18.24-30.17-19.46 30.17zM207.74 704.21l-11.13-30.68-19.9 30.68z"/><path class="st5" d="M206.68 607.19s6.1 8.02 15.45 8.75c9.66.76 14.85-2.5 24.33-1.51 10.31 1.08 16.07 4.55 27.41 5.44 10.87.85 24.09-4.73 24.09-4.73l-91.28-7.95z"/><path class="st5" d="M219.53 614.76s-1.47 14.75-1.6 16.18c-.2 2.29 2.42 2.59 2.63.22.11-1.22 1.62-16.48 1.62-16.48l-2.65.08zM227.52 613.28s-.53 5.02-.65 6.45c-.2 2.29 2.42 2.59 2.63.22.11-1.22.68-6.75.68-6.75l-2.66.08zM220.78 651.17c-.85.57-.75 2 .09 2.41.98.47 2.03-.08 2.11-1.16.09-1.12-1.2-1.92-2.2-1.25zM219.75 655.76c-.85.57-.75 2 .09 2.41.98.47 2.03-.08 2.11-1.16.09-1.12-1.2-1.91-2.2-1.25zM224.52 654.48c-.85.57-.75 2 .09 2.41.98.47 2.03-.08 2.11-1.16.09-1.12-1.2-1.92-2.2-1.25zM277.66 614.96s-1.47 14.75-1.6 16.18c-.2 2.29 2.42 2.59 2.63.22.11-1.22 1.62-16.48 1.62-16.48l-2.65.08zM249.58 612.84s-1.47 14.75-1.6 16.18c-.2 2.29 2.42 2.59 2.63.22.11-1.22 1.62-16.48 1.62-16.48l-2.65.08zM211.42 610.89s-.53 5.02-.65 6.45c-.2 2.29 2.42 2.59 2.63.22.11-1.22.68-6.75.68-6.75l-2.66.08zM255.07 613.22s-.53 5.02-.65 6.45c-.2 2.29 2.42 2.59 2.63.22.11-1.22.68-6.75.68-6.75l-2.66.08zM271.6 618.52s-.53 5.02-.65 6.45c-.2 2.29 2.42 2.59 2.63.22.11-1.22.68-6.75.68-6.75l-2.66.08zM286.75 614.81s-.53 5.02-.65 6.45c-.2 2.29 2.42 2.59 2.63.22.11-1.22.68-6.75.68-6.75l-2.66.08z"/><g><path class="st5" d="M279.15 670.52c-1.01-.2-1.94.9-1.63 1.78.36 1.02 1.5 1.37 2.32.66.84-.74.48-2.22-.69-2.44zM275.19 673.06c-1.01-.2-1.94.9-1.63 1.78.36 1.02 1.5 1.37 2.32.66.84-.74.48-2.21-.69-2.44zM279.49 675.5c-1.01-.2-1.94.9-1.63 1.78.36 1.02 1.5 1.37 2.32.66.84-.74.48-2.21-.69-2.44z"/></g></g><path class="st9" d="M269.52 222.03s-10.43-3.83-11.07-12.58c-.59-7.98 7-12.51 7-12.51s-5.69-11.36 2.35-17.62c8.06-6.28 18.25-1.39 18.25-1.39s3.25-7.42 9.73-8.08c7.67-.78 12.62 5.06 12.62 5.06s-3.99-11.36-13.61-10.79c-7.1.42-11.5 7.08-11.5 7.08s-12.05-5.14-21.22 3.57c-8.56 8.13-2.77 18.71-2.77 18.71s-8.6 6.47-7.77 15.98c.98 11.2 17.99 12.57 17.99 12.57zM224.87 197.98s6.18-10.72.49-18.65c-5.19-7.24-14.91-5.7-14.91-5.7s-3.24-13.77-14.58-13.39c-11.37.38-16.6 11.83-16.6 11.83s-8.07-4.03-14.08.03c-7.12 4.81-7.18 13.33-7.18 13.33s-4.7-12.55 3.94-18.93c6.37-4.7 14.88-2.15 14.88-2.15s6.64-12.99 20.68-12.09c13.11.85 15.72 14.01 15.72 14.01s11.97-.61 18.04 8.12c7.16 10.28-6.4 23.59-6.4 23.59zM168.55 201.81s-10.01 3.1-10.2 11.22c-.19 8.14 7.81 10.99 7.81 10.99s-3.21 5.6-.55 10.06c3.14 5.28 9.23 5.67 9.23 5.67s-9.16 2.84-13.36-3.59c-3.1-4.74-.93-10.72-.93-10.72s-10.61-5.6-7.79-15.27c3.22-11.05 15.79-8.36 15.79-8.36zM347.29 195.57s8.5-8.81 4.11-17.23c-4.39-8.44-14.2-6.84-14.2-6.84s.12-7.54-5.11-10.61c-6.19-3.63-12.65-.6-12.65-.6s7.77-8.07 15.7-3.86c5.85 3.11 7 10.45 7 10.45s14.02-.25 16.58 11.23c2.95 13.13-11.43 17.46-11.43 17.46zM136.48 275.97s-9.99-.91-18.82-9.73c-7.3-7.29-9.18-17.15-9.18-17.15s-14.61-1.75-16.75-14.71c-2.15-12.99 8.05-21.3 8.05-21.3s-5.17-7.68-3.86-17.85c1.38-10.72 9.18-18.75 9.18-18.75s-13.66 6.8-15.93 18.85c-2.08 11.05 3.14 17.38 3.14 17.38s-13.05 9.18-8.82 24.91c3.94 14.69 19.28 15.95 19.28 15.95s.74 9.29 10.06 17.31c10.32 8.89 23.65 5.09 23.65 5.09zM247.41 156.15s2.13-8.2 10.68-14.36c7.07-5.09 15.54-5.31 15.54-5.31s3.45-11.93 14.55-11.95c11.12-.02 16.66 9.61 16.66 9.61s7.11-3.26 15.4-.78c8.75 2.62 14.37 10.21 14.37 10.21s-3.8-12.32-13.53-15.85c-8.92-3.24-14.91.25-14.91.25s-5.87-12.13-19.55-10.76c-12.78 1.28-15.93 13.89-15.93 13.89s-7.84-.65-15.8 6.02c-8.83 7.4-7.48 19.03-7.48 19.03zM208.38 120.92s-10.02-5.74-26.08-2.83c-15.65 2.84-20.74 16.37-20.74 16.37s-10.23-4.03-20.07 1.57c-10.44 5.94-13.56 17.41-13.56 17.41s-3.03-15.28 9.58-23.42c10.92-7.05 21.26-3.02 21.26-3.02s4.46-13.65 22.08-16.98c20.39-3.87 27.53 10.9 27.53 10.9z"/></g><g id="Layer_2" display="none"><path fill="#0000b5" d="M98.21-268.39h28v28h-28z"/><path fill="#7cdfff" d="M98.21-157.14h28v28h-28z"/><path class="st3" d="M98.21-184.98h28v28h-28z"/><path fill="#f6f8fb" d="M62.05-74.17h28v28h-28z"/><path class="st9" d="M62.05-101.42h28v28h-28z"/><path fill="#d9e0e8" d="M62.05-128.83h28v28h-28z"/><path fill="#c3ccd9" d="M62.05-156.5h28v28h-28z"/><path fill="#acb1ba" d="M62.05-184.47h28v28h-28z"/><path fill="#909296" d="M62.05-212.14h28v28h-28z"/><path fill="#767676" d="M62.05-239.72h28v28h-28z"/><path fill="#0293f4" d="M98.21-212.89h28v28h-28z"/><path fill="#0063fb" d="M98.21-240.73h28v28h-28z"/><path fill="#f1f9ff" d="M98.21-74.17h28v28h-28z"/><path d="M100.23-52.35l3.61 3.91 4.01-6.43-4.18 3.64z"/><path class="st2" d="M98.21-129.09h28v28h-28z"/><path fill="#dbf5ff" d="M98.21-101.42h28v28h-28z"/><path d="M100.23-107.27l3.61 3.91 4.01-6.42-4.18 3.63zM100.23-163.6l3.61 3.91 4.01-6.43-4.18 3.64zM100.23-219.69l3.61 3.92 4.01-6.43-4.18 3.63z"/><path fill="#ffad96" d="M134.46-157.25h28v28h-28z"/><path fill="#ff937b" d="M134.46-184.55h28v28h-28z"/><path class="st1" d="M134.46-212.05h28v28h-28z"/><path fill="#ff5844" d="M134.46-239.96h28v28h-28z"/><path fill="#e4290a" d="M134.46-267.88h28v28h-28z"/><path fill="#ffdbcc" d="M134.46-101.42h28v28h-28z"/><path fill="#ffefef" d="M134.46-74.17h28v28h-28z"/><path class="st0" d="M134.46-129.45h28v28h-28z"/><path d="M136.48-53.1l3.61 3.91 4.01-6.43-4.18 3.64z"/><path fill="#fff5c8" d="M170.71-74.17h28v28h-28z"/><path fill="#ffec99" d="M170.71-101.92h28v28h-28z"/><path fill="#f7d857" d="M170.71-129.73h28v28h-28z"/><path fill="#e6bf3d" d="M170.71-157.56h28v28h-28z"/><path fill="#d3a526" d="M170.71-185.06h28v28h-28z"/><path d="M172.73-52.35l3.61 3.91 4.01-6.43-4.18 3.64zM136.48-218.59l3.61 3.91 4.01-6.42-4.18 3.63z"/><path fill="#7df2c5" d="M206.21-101.98h28v28h-28z"/><path fill="#2ee69f" d="M206.21-129.48h28v28h-28z"/><path fill="#06c484" d="M206.21-157.2h28v28h-28z"/><path fill="#199c6c" d="M206.21-185.06h28v28h-28z"/><path fill="#277450" d="M206.21-212.89h28v28h-28z"/><path fill="#ccffec" d="M206.21-74.17h28v28h-28z"/><path d="M208.23-52.35l3.61 3.91 4.01-6.43-4.18 3.64zM208.22-108.1l3.62 3.91 4.01-6.43-4.18 3.64zM136.48-246.84l3.61 3.91 4.01-6.42-4.18 3.63z"/><path fill="#474445" d="M62.05-267.39h28v28h-28z"/><path fill="#353233" d="M62.05-295.26h28v28h-28z"/><path d="M64.23-218.68l3.61 3.91 4.01-6.43-4.18 3.64z"/><path fill="#fff" d="M64.23-246.43l3.61 3.91 4.01-6.43-4.18 3.64z"/><path class="st8" d="M240.98-240.39h28v28h-28z"/><path fill="#f0d9b4" d="M240.98-74.3h28v28h-28z"/><path class="st4" d="M240.98-157.48h28v28h-28z"/><path class="st6" d="M240.98-184.85h28v28h-28z"/><path fill="#6d5a3f" d="M240.98-212.52h28v28h-28z"/><path fill="#905f5a" d="M268.9-184.85h28v28h-28z"/><path class="st7" d="M240.98-101.98h28v28h-28z"/><path class="st5" d="M240.98-129.64h28v28h-28z"/><path d="M64.23-136.23l3.61 3.91 4.01-6.43-4.18 3.64zM64.23-53.33l3.61 3.91 4.01-6.43-4.18 3.64z"/></g></svg>